<svg width="172" height="40" viewBox="0 0 172 40" fill="none" xmlns="http://www.w3.org/2000/svg">
<g clip-path="url(#clip0_794_201)">
<circle cx="20" cy="20" r="19.5" stroke="#6F6F6F"/>
<path d="M24.1135 10C29.5725 10 30 10.427 30 15.8865V24.113C30 29.5725 29.5725 30 24.1135 30H15.8865C10.4275 30 10 29.5725 10 24.1135V15.8865C10 10.427 10.4275 10 15.8865 10H24.1135ZM16.5145 25.5V17.364H13.986V25.5H16.5145ZM15.2505 16.2005C16.063 16.2005 16.724 15.5395 16.724 14.726C16.724 13.9135 16.063 13.2525 15.2505 13.2525C14.436 13.2525 13.776 13.9125 13.776 14.726C13.776 15.5395 14.435 16.2005 15.2505 16.2005ZM26 25.5V21.0375C26 18.8465 25.527 17.1615 22.9665 17.1615C21.7365 17.1615 20.912 17.836 20.574 18.4755H20.54V17.364H18.1145V25.5H20.6415V21.475C20.6415 20.414 20.844 19.386 22.1595 19.386C23.4565 19.386 23.4735 20.5995 23.4735 21.5435V25.5H26Z" fill="#6F6F6F"/>
</g>
<g clip-path="url(#clip1_794_201)">
<circle cx="64" cy="20" r="19.5" stroke="#6F6F6F"/>
<path d="M64 9C70.0655 9 75 13.9508 75 20.0364C75 25.5275 70.982 30.093 65.741 30.9333V22.7874H68.2365L68.61 20.0263H65.741C65.741 20.0263 65.741 18.3593 65.741 17.9359C65.741 17.1077 66.299 16.6828 66.8915 16.6828C67.484 16.6828 68.711 16.6658 68.711 16.6658V13.995C68.711 13.995 67.6195 13.8685 66.5045 13.8685C65.568 13.8685 64.536 14.1334 63.71 14.9862C62.87 15.8531 62.749 16.885 62.749 18.4476C62.749 18.8996 62.749 20.0268 62.749 20.0268H60.2475V22.7879H62.749V31C57.2705 30.3739 53 25.697 53 20.0364C53 13.9508 57.9345 9 64 9Z" fill="#6F6F6F"/>
</g>
<g clip-path="url(#clip2_794_201)">
<circle cx="108" cy="20" r="19.5" stroke="#6F6F6F"/>
<path d="M107.91 10C98.7192 10 98 10.7197 98 19.9102V20.0898C98 29.2803 98.7192 30 107.91 30H108.09C117.281 30 118 29.2803 118 20.0898V20C118 10.726 117.274 10 108 10H107.91ZM113.997 13C114.55 12.9985 114.999 13.4446 115 13.9971C115.001 14.5496 114.555 14.9985 114.003 15C113.45 15.0015 113.002 14.5554 113 14.0029C112.998 13.4504 113.445 13.0015 113.997 13ZM107.988 15C110.749 14.9935 112.993 17.2273 113 19.9883C113.007 22.7493 110.773 24.9935 108.012 25C105.251 25.0065 103.006 22.7727 103 20.0117C102.994 17.2507 105.227 15.0065 107.988 15ZM107.993 17C106.336 17.004 104.996 18.3508 105 20.0078C105.004 21.6643 106.35 23.004 108.007 23C109.664 22.996 111.004 21.6497 111 19.9932C110.996 18.3362 109.65 16.996 107.993 17Z" fill="#6F6F6F"/>
</g>
<g clip-path="url(#clip3_794_201)">
<circle cx="152" cy="20" r="19.5" stroke="#6F6F6F"/>
<path d="M144 12C142.976 12 142.14 12.7726 142.023 13.7656L152 20L161.977 13.7656C161.86 12.7726 161.024 12 160 12H144ZM142 15.752V26C142 27.105 142.895 28 144 28H160C161.105 28 162 27.105 162 26V15.752L152.529 21.6699C152.205 21.8719 151.795 21.8719 151.471 21.6699L142 15.752Z" fill="#6F6F6F"/>
</g>
<defs>
<clipPath id="clip0_794_201">
<rect width="40" height="40" fill="white"/>
</clipPath>
<clipPath id="clip1_794_201">
<rect width="40" height="40" fill="white" transform="translate(44)"/>
</clipPath>
<clipPath id="clip2_794_201">
<rect width="40" height="40" fill="white" transform="translate(88)"/>
</clipPath>
<clipPath id="clip3_794_201">
<rect width="40" height="40" fill="white" transform="translate(132)"/>
</clipPath>
</defs>
</svg>
